<?xml version="1.0" encoding="UTF-8"?>
<svg width="16px" height="16px" viewBox="0 0 16 16" version="1.1" xmlns="http://www.w3.org/2000/svg" xmlns:xlink="http://www.w3.org/1999/xlink">
    <title>Actions</title>
    <g id="Base-table" stroke="none" stroke-width="1" fill="none" fill-rule="evenodd">
        <g id="Artboard" transform="translate(-1038.000000, -260.000000)" fill="#344B60" fill-rule="nonzero">
            <g id="Actions" transform="translate(1038.800000, 260.000000)">
                <path d="M8.57142857,0 C9.58132069,0 10.4,0.7163444 10.4,1.6 L10.399,2.399 L12.8,2.4 L12.799,2.4 L14.0210526,2.4 C14.2303395,2.4 14.4,2.62385763 14.4,2.9 C14.4,3.14545989 14.2659472,3.34960837 14.0891689,3.39194433 L14.0210526,3.4 L12.744,3.4 L12.218703,12.9879105 C12.1258418,14.6793109 10.8185594,16 9.23719016,16 L5.16280984,16 C3.5814406,16 2.27415824,14.6793109 2.18129705,12.9879105 L1.654,3.4 L0.378947368,3.4 C0.169660516,3.4 0,3.17614237 0,2.9 C0,2.65454011 0.134052753,2.45039163 0.3108311,2.40805567 L0.378947368,2.4 L1.599,2.4 L1.6,2.4 L4,2.399 L4,1.6 C4,0.7163444 4.81867931,0 5.82857143,0 L8.57142857,0 Z M11.996,3.4 L2.402,3.4 L2.92667524,12.9409329 C2.99374167,14.1624998 3.90540552,15.126247 5.03191085,15.19596 L5.16280984,15.2 L9.23719016,15.2 C10.3792902,15.2 11.3307701,14.281496 11.4618739,13.0807025 L11.4733248,12.9409329 L11.996,3.4 Z M5.3,6.4 C5.54545989,6.4 5.74960837,6.54150013 5.79194433,6.72809949 L5.8,6.8 L5.8,11.6 C5.8,11.8209139 5.57614237,12 5.3,12 C5.05454011,12 4.85039163,11.8584999 4.80805567,11.6719005 L4.8,11.6 L4.8,6.8 C4.8,6.5790861 5.02385763,6.4 5.3,6.4 Z M9.3,6.4 C9.54545989,6.4 9.74960837,6.54150013 9.79194433,6.72809949 L9.8,6.8 L9.8,11.6 C9.8,11.8209139 9.57614237,12 9.3,12 C9.05454011,12 8.85039163,11.8584999 8.80805567,11.6719005 L8.8,11.6 L8.8,6.8 C8.8,6.5790861 9.02385763,6.4 9.3,6.4 Z M8.64,0.8 L5.76,0.8 C5.26767759,0.8 4.86191313,1.10883215 4.80645862,1.5067031 L4.8,1.6 L4.8,2.399 L9.599,2.399 L9.6,1.6 C9.6,1.18973133 9.22940142,0.851594271 8.75195628,0.805382185 L8.64,0.8 Z" id="Bin"></path>
            </g>
        </g>
    </g>
</svg>